<svg xmlns="http://www.w3.org/2000/svg" viewBox="0 0 661.16 136.75">
	<g>
		<polygon class="a" points="1.07 134.86 23.1 80.72 145.87 1.24 126.72 52.65 1.07 134.86"/>
		<polygon class="a" points="76.82 134.86 93.98 85.53 172.32 33.8 152.8 84.8 76.82 134.86"/>
		<polygon class="a" points="1.07 85.44 18.23 36.11 71.04 1.24 55.75 49.41 1.07 85.44"/>
	</g>
	<g>
		<path class="a" d="M196.89,60.07V8.73h27.58a34.89,34.89,0,0,1,9.24,1,9.31,9.31,0,0,1,5.44,3.88q1.9,2.87,1.9,8.26a22.77,22.77,0,0,1-.65,5.94,7.52,7.52,0,0,1-2.46,3.86,10.51,10.51,0,0,1-5.14,2v0.55a10.62,10.62,0,0,1,5.69,1.68,7.14,7.14,0,0,1,2.7,3.84,21.53,21.53,0,0,1,.7,6q0,6.07-1.9,9.17a9.07,9.07,0,0,1-5.49,4.12,37.4,37.4,0,0,1-9.76,1H196.89Zm14-40.11v9.31H221a14,14,0,0,0,3.84-.38,2.72,2.72,0,0,0,1.74-1.42,7.45,7.45,0,0,0,.5-3.12,5.17,5.17,0,0,0-.86-3.42q-0.86-1-3.55-1H210.89Zm0,18.82V48.84h10.56a13,13,0,0,0,3.75-.43,3.42,3.42,0,0,0,2-1.56,6.48,6.48,0,0,0,.65-3.2q0-3.06-1.28-4t-4.87-.9H210.89Z"/><path class="a" d="M264,45.15h-3.92V38h4.13a8,8,0,0,0,4-.69,3,3,0,0,0,1.05-2.67A2.74,2.74,0,0,0,268.12,32a9.49,9.49,0,0,0-4.29-.67,7.84,7.84,0,0,0-4.24.82,3.44,3.44,0,0,0-1.16,3H247.09V33.38a7.89,7.89,0,0,1,2.16-5.89,11.74,11.74,0,0,1,5.84-3,40.68,40.68,0,0,1,8.72-.82,44,44,0,0,1,9.72.85,9.28,9.28,0,0,1,5.34,3,9.58,9.58,0,0,1,1.74,6.11q0,5.92-5.94,7.19v0.28q7.34,0.9,7.34,8.47,0,4.45-1.85,6.79a9.48,9.48,0,0,1-5.57,3.19,47.93,47.93,0,0,1-10.14.84,49.68,49.68,0,0,1-10.5-.85,9,9,0,0,1-5.54-3.38q-1.82-2.53-1.82-7.48h12.06a5.55,5.55,0,0,0,.48,2.62,2.55,2.55,0,0,0,1.68,1.18,15,15,0,0,0,3.57.32,15.7,15.7,0,0,0,3.74-.33,2.72,2.72,0,0,0,1.75-1.14,4.5,4.5,0,0,0,.48-2.29,5,5,0,0,0-.49-2.46,2.77,2.77,0,0,0-1.8-1.17A17.31,17.31,0,0,0,264,45.15Z"/><path class="a" d="M292.51,24.14h32.06V60.07h-12V32.77h-8.67V44.33q0,8.92-3.61,12.54t-10.12,3.62a41.61,41.61,0,0,1-5.18-.28V51.74a21.94,21.94,0,0,0,2.44.13q3,0,4.06-2a12.52,12.52,0,0,0,1.05-5.76v-20Z"/><path class="a" d="M354.75,48.09h11.83q0,7.47-5,10.28A16.12,16.12,0,0,1,356.23,60a53.33,53.33,0,0,1-7.57.46q-7.18,0-11.08-1.77a10,10,0,0,1-5.41-5.7,31.24,31.24,0,0,1-1.51-10.88q0-7.2,1.44-11.1a9.54,9.54,0,0,1,5.29-5.61q3.85-1.71,11.27-1.71,7.06,0,10.88,1.56A9.61,9.61,0,0,1,365,30.79q1.61,3.94,1.61,11.35v2H342.7a26.1,26.1,0,0,0,.25,4,5.88,5.88,0,0,0,.88,2.46,3.52,3.52,0,0,0,1.79,1.3,9.53,9.53,0,0,0,3.05.4,10.21,10.21,0,0,0,4.65-.79Q354.75,50.7,354.75,48.09Zm-12-10.46h11.84q0-3.71-1.33-4.7t-4.77-1a10.17,10.17,0,0,0-3.43.44,3,3,0,0,0-1.7,1.64A10.27,10.27,0,0,0,342.7,37.63Z"/><path class="a" d="M400.11,24.14v8.62h-9.66V60.07h-12V32.77h-9.66V24.14h31.36Z"/><path class="a" d="M243.45,69.36V120.7h-14V100.58H211.16V120.7h-14V69.36h14v19.3h18.29V69.36h14Z"/><path class="a" d="M268.57,84.36a46.63,46.63,0,0,1,9.53.77,9.57,9.57,0,0,1,8.15,8.18,47.52,47.52,0,0,1,.74,9.47,44.45,44.45,0,0,1-.77,9.29A9.85,9.85,0,0,1,278,120.3a43.38,43.38,0,0,1-9.47.82,40,40,0,0,1-9.29-.87,10.18,10.18,0,0,1-8.26-8.4,42.38,42.38,0,0,1-.79-9.08,45.93,45.93,0,0,1,.74-9.28A11,11,0,0,1,253.65,88a10.86,10.86,0,0,1,5.49-2.84A42.71,42.71,0,0,1,268.57,84.36Zm0.22,9a9.64,9.64,0,0,0-4.32.72,3.7,3.7,0,0,0-1.76,2.63,30.49,30.49,0,0,0-.43,6,30.23,30.23,0,0,0,.43,6,3.62,3.62,0,0,0,1.77,2.6,9.84,9.84,0,0,0,4.31.7,11.85,11.85,0,0,0,3.37-.38,3.13,3.13,0,0,0,1.81-1.34,6.43,6.43,0,0,0,.79-2.67,48.54,48.54,0,0,0,.19-4.92,33.76,33.76,0,0,0-.38-6,3.65,3.65,0,0,0-1.64-2.62A8.78,8.78,0,0,0,268.79,93.4Z"/><path class="a" d="M293.21,84.77h19.89q6.36,0,9.51,2.06t3.15,7.32a7.39,7.39,0,0,1-1.46,4.92,8.35,8.35,0,0,1-4.48,2.46v0.28a8.71,8.71,0,0,1,5.4,2.67,8.35,8.35,0,0,1,1.94,5.8,12.38,12.38,0,0,1-1.35,6.33,7.22,7.22,0,0,1-4.2,3.17,26.32,26.32,0,0,1-7.75.91H293.21V84.77Zm11.35,7.6v6.22h6a5.51,5.51,0,0,0,3-.59,3,3,0,0,0,.8-2.47,3.07,3.07,0,0,0-.83-2.43,4.46,4.46,0,0,0-2.88-.72h-6.16Zm0,13.4v7.32H311a5.94,5.94,0,0,0,3.49-.76,3.44,3.44,0,0,0,1-2.87q0-2.19-1-2.94a6,6,0,0,0-3.5-.75h-6.45Z"/><path class="a" d="M350.69,84.36a46.63,46.63,0,0,1,9.53.77,9.57,9.57,0,0,1,8.15,8.18,47.52,47.52,0,0,1,.74,9.47,44.45,44.45,0,0,1-.77,9.29,9.85,9.85,0,0,1-8.19,8.24,43.38,43.38,0,0,1-9.47.82,40,40,0,0,1-9.29-.87,10.18,10.18,0,0,1-8.26-8.4,42.38,42.38,0,0,1-.79-9.08,45.93,45.93,0,0,1,.74-9.28A11,11,0,0,1,335.77,88a10.86,10.86,0,0,1,5.49-2.84A42.71,42.71,0,0,1,350.69,84.36Zm0.22,9a9.64,9.64,0,0,0-4.32.72,3.7,3.7,0,0,0-1.76,2.63,30.49,30.49,0,0,0-.43,6,30.23,30.23,0,0,0,.43,6,3.62,3.62,0,0,0,1.77,2.6,9.84,9.84,0,0,0,4.31.7,11.85,11.85,0,0,0,3.37-.38,3.13,3.13,0,0,0,1.81-1.34,6.43,6.43,0,0,0,.79-2.67,48.54,48.54,0,0,0,.19-4.92,33.76,33.76,0,0,0-.38-6A3.65,3.65,0,0,0,355,94.11,8.78,8.78,0,0,0,350.91,93.4Z"/><path class="a" d="M397,106.33h12a22.77,22.77,0,0,1-1.06,7.75,9,9,0,0,1-3.27,4.36,12.64,12.64,0,0,1-5.18,2.08,46.37,46.37,0,0,1-8.28.59,35.54,35.54,0,0,1-8.79-.89,10.78,10.78,0,0,1-5.33-3,11.7,11.7,0,0,1-2.69-5.51,42.31,42.31,0,0,1-.77-9,41.4,41.4,0,0,1,.69-8.3,12.87,12.87,0,0,1,2.53-5.56,11.1,11.1,0,0,1,5.31-3.41,29.55,29.55,0,0,1,9-1.14,40.83,40.83,0,0,1,9.79,1,9.92,9.92,0,0,1,5.87,4q2.13,3,2.13,9H397q0-3-1-3.84-1.16-1-4.77-1a7,7,0,0,0-3.41.65,3.94,3.94,0,0,0-1.63,2.62,27.22,27.22,0,0,0-.5,6.1,31.06,31.06,0,0,0,.44,6.23,3.51,3.51,0,0,0,1.55,2.49,8,8,0,0,0,3.55.59,11,11,0,0,0,3.91-.5,2.44,2.44,0,0,0,1.52-1.63A14.81,14.81,0,0,0,397,106.33Z"/><path class="a" d="M449.24,120.7H438.46V98.53h-0.34l-9.88,22.18H414.45V84.77h10.78v22h0.56l9.79-22h13.65V120.7Z"/><path class="a" d="M466.33,92.09a7.82,7.82,0,0,1,3.27-4.64,10.17,10.17,0,0,1,6-1.8,26.45,26.45,0,0,1,9.72,1.43,9,9,0,0,1,5,5.12q1.55,3.69,1.55,10.56a41.27,41.27,0,0,1-.81,9.06,11.58,11.58,0,0,1-2.76,5.52,11,11,0,0,1-5.41,2.9,38.15,38.15,0,0,1-9,.87q-7.54,0-11.47-1.84a10.05,10.05,0,0,1-5.4-6q-1.47-4.2-1.47-12V94.7a37,37,0,0,1,1.78-12.51A13.33,13.33,0,0,1,463.05,75q4-2.34,10.41-2.34,3.55,0,5-.13a3.79,3.79,0,0,0,2.1-.67,2.34,2.34,0,0,0,.65-1.88h8.69a11.17,11.17,0,0,1-1.64,6.39,9,9,0,0,1-4.9,3.46,27.58,27.58,0,0,1-8.3,1,13.82,13.82,0,0,0-5.3.83,5.5,5.5,0,0,0-2.92,3.09,17,17,0,0,0-1,6.41v0.88h0.43Zm7.77,2.61a9.43,9.43,0,0,0-4.07.69,3.76,3.76,0,0,0-1.9,2.41,17.88,17.88,0,0,0-.53,5,32.69,32.69,0,0,0,.39,6,3.55,3.55,0,0,0,1.68,2.57,9.31,9.31,0,0,0,4.21.7,11.29,11.29,0,0,0,3.36-.38,3,3,0,0,0,1.73-1.38,6.41,6.41,0,0,0,.72-2.63q0.15-1.64.14-4.91a25.11,25.11,0,0,0-.37-5.11,3.31,3.31,0,0,0-1.56-2.3A8.2,8.2,0,0,0,474.1,94.7Z"/><path class="a" d="M533,120.7H522.25V98.53h-0.34L512,120.7H498.24V84.77H509v22h0.56l9.79-22H533V120.7Z"/><path class="a" d="M552.86,115.29v21h-12V84.77h12l-0.29,5.68h0.56a7.29,7.29,0,0,1,3.59-4.76,15.21,15.21,0,0,1,6.92-1.34q6.91,0,10.42,3.13t3.51,10.09v8.21a23.67,23.67,0,0,1-1.38,8.87,9.25,9.25,0,0,1-4.44,4.91,18,18,0,0,1-8.1,1.55,14.77,14.77,0,0,1-6.32-1.2,8.06,8.06,0,0,1-3.9-4.63h-0.56Zm0-12.52a30.47,30.47,0,0,0,.36,5.33,4.7,4.7,0,0,0,1.67,2.94,6.36,6.36,0,0,0,4,1,9.68,9.68,0,0,0,4-.66,4,4,0,0,0,2-2.65,21.76,21.76,0,0,0,.62-6,26.32,26.32,0,0,0-.49-5.93,4,4,0,0,0-1.89-2.68,9.28,9.28,0,0,0-4.27-.76,7.69,7.69,0,0,0-3.85.76,4,4,0,0,0-1.72,2.7A28.74,28.74,0,0,0,552.86,102.77Z"/><path class="a" d="M605.7,106.33h12a22.77,22.77,0,0,1-1.06,7.75,9,9,0,0,1-3.27,4.36,12.64,12.64,0,0,1-5.18,2.08,46.37,46.37,0,0,1-8.28.59,35.54,35.54,0,0,1-8.79-.89,10.78,10.78,0,0,1-5.33-3,11.7,11.7,0,0,1-2.69-5.51,42.31,42.31,0,0,1-.77-9,41.4,41.4,0,0,1,.69-8.3,12.87,12.87,0,0,1,2.53-5.56,11.1,11.1,0,0,1,5.31-3.41,29.55,29.55,0,0,1,9-1.14,40.83,40.83,0,0,1,9.79,1,9.92,9.92,0,0,1,5.87,4q2.13,3,2.13,9h-12q0-3-1-3.84-1.16-1-4.77-1a7,7,0,0,0-3.41.65,3.94,3.94,0,0,0-1.63,2.62,27.22,27.22,0,0,0-.5,6.1,31.06,31.06,0,0,0,.44,6.23,3.51,3.51,0,0,0,1.55,2.49,8,8,0,0,0,3.55.59,11,11,0,0,0,3.91-.5,2.44,2.44,0,0,0,1.52-1.63A14.81,14.81,0,0,0,605.7,106.33Z"/><path class="a" d="M635.23,84.77V98.26h2.1l7.28-13.49h13.23L647.48,102l12.73,18.68H646.15l-8.82-14.57h-2.1V120.7h-12V84.77h12Z"/>
	</g>
</svg>